<svg xmlns="http://www.w3.org/2000/svg" width="23" height="72" viewBox="0 0 23 72">
  <g id="_2" data-name="2" transform="translate(-4107 -1188)">
    <g id="Group_69" data-name="Group 69" transform="translate(4107 1213)">
      <g id="Ellipse_49" data-name="Ellipse 49" fill="none" stroke="#1c9fed" stroke-linecap="round" stroke-width="2">
        <circle cx="11.5" cy="11.5" r="11.5" stroke="none"/>
        <circle cx="11.5" cy="11.5" r="10.5" fill="none"/>
      </g>
    </g>
    <path id="Icon_awesome-check" data-name="Icon awesome-check" d="M3.8,13.535.164,9.553a.654.654,0,0,1,0-.866L.955,7.82a.526.526,0,0,1,.791,0L4.2,10.5,9.446,4.757a.526.526,0,0,1,.791,0l.791.866a.654.654,0,0,1,0,.866L4.593,13.535A.526.526,0,0,1,3.8,13.535Z" transform="matrix(0.999, -0.035, 0.035, 0.999, 4112.84, 1214.816)" fill="#3fa214"/>
    <rect id="Rectangle_110" data-name="Rectangle 110" width="3" height="26" transform="translate(4117 1188)" fill="#1c9fed"/>
    <rect id="Rectangle_111" data-name="Rectangle 111" width="3" height="26" transform="translate(4117 1234)" fill="#1c9fed"/>
  </g>
</svg>
