<?xml version="1.0" encoding="UTF-8"?>
<svg id="Layer_2" data-name="Layer 2" xmlns="http://www.w3.org/2000/svg" viewBox="0 0 35 35">
  <defs>
    <style>
      .cls-1 {
      fill: #fbab2e;
      }

      .cls-1, .cls-2 {
      stroke-width: 0px;
      }

      .cls-2 {
      fill: #0088c8;
      }
    </style>
  </defs>
  <g id="Layer_2-2" data-name="Layer 2">
    <g id="Layer_1-2" data-name="Layer 1-2">
      <g>
        <path class="cls-2" d="M16.79,10.25c0,1.57.01,3.15,0,4.72-.01,1.17-.53,1.7-1.7,1.7-3.06.02-6.12.04-9.18,0-2.66-.04-5.18-2.12-5.62-4.74-.39-2.3-.37-4.65-.02-6.95C.68,2.14,3.15.09,6.01.03,7.63,0,9.25,0,10.86.03c3.33.07,5.89,2.68,5.92,6.01.01,1.4,0,2.81,0,4.21h0ZM13.76,9.47v-3.29c0-.07,0-.14,0-.21-.12-1.71-1.28-2.87-3-2.91-1.55-.04-3.1-.04-4.64,0-1.68.05-2.9,1.29-2.94,2.97-.04,1.54-.04,3.08,0,4.62.05,1.7,1.24,2.92,2.94,2.96,2.3.06,4.61,0,6.91.04.62,0,.76-.26.74-.8-.03-1.13,0-2.26-.01-3.39h0Z"/>
        <path class="cls-2" d="M24.67,16.68c-1.51,0-3.02.01-4.53,0-1.25-.01-1.79-.49-1.8-1.72-.03-3.05-.09-6.09.02-9.13C18.47,2.45,21.07.06,24.47.02c1.51-.02,3.02-.02,4.53,0,3.29.06,5.88,2.61,5.96,5.87.04,1.64.05,3.28,0,4.93-.09,3.27-2.7,5.81-5.97,5.86-1.44.02-2.89,0-4.33,0h0ZM25.5,13.65c1.1,0,2.2.02,3.3,0,1.86-.05,3.11-1.23,3.18-3.07.06-1.5.06-3.01,0-4.51-.07-1.79-1.33-2.97-3.13-3.01-1.44-.03-2.88-.02-4.32,0-1.85.03-3.12,1.21-3.17,3.07-.06,2.25,0,4.51-.02,6.77,0,.58.2.78.78.77,1.13-.03,2.26,0,3.4-.01h0Z"/>
        <path class="cls-2" d="M10.41,18.24c1.55,0,3.09-.01,4.64,0,1.27.01,1.73.48,1.74,1.75.01,2.87.01,5.75,0,8.63-.01,3.31-2.11,5.8-5.39,6.2-1.94.24-3.92.22-5.87,0-2.87-.32-4.96-2.34-5.32-5.19-.27-2.16-.3-4.38.05-6.55.44-2.73,2.84-4.76,5.61-4.84,1.51-.04,3.02,0,4.54,0h0s0,0,0,0ZM9.67,21.22c-1.13,0-2.27-.03-3.4,0-1.86.07-3.07,1.3-3.11,3.14-.02,1.44-.02,2.87,0,4.31.03,1.89,1.28,3.14,3.18,3.17,1.37.02,2.75.02,4.12,0,1.95-.02,3.22-1.12,3.3-3.06.09-2.29.02-4.58.04-6.88,0-.53-.2-.72-.73-.71-1.13.02-2.27,0-3.4.01h0Z"/>
        <path class="cls-1" d="M34.89,26.55c0,.68,0,1.37,0,2.05-.02,3.33-1.99,5.72-5.32,6.13-2.07.26-4.19.31-6.26-.06-2.87-.51-4.72-2.66-4.87-5.55-.08-1.57-.08-3.15-.04-4.72.03-1.09.56-1.56,1.51-1.52.88.04,1.31.53,1.32,1.6.02,1.33,0,2.67.01,4.01.03,2.18,1.3,3.44,3.48,3.45,1.31,0,2.61.01,3.92,0,2.01-.02,3.31-1.22,3.39-3.23.07-1.47.06-2.95,0-4.42-.08-1.9-1.39-3.09-3.38-3.14-1.34-.03-2.68,0-4.02-.01-1.12-.01-1.64-.46-1.67-1.38-.02-.93.48-1.45,1.58-1.47,1.68-.03,3.38-.08,5.05.06,2.95.26,5.16,2.68,5.27,5.63.03.86,0,1.71,0,2.57h0,0Z"/>
        <path class="cls-1" d="M19.83,18.29c.83.01,1.42.61,1.41,1.42-.01.85-.56,1.41-1.41,1.41-.82,0-1.43-.61-1.42-1.41,0-.8.64-1.44,1.43-1.42h0Z"/>
      </g>
    </g>
  </g>
</svg>