<svg xmlns="http://www.w3.org/2000/svg" width="12" height="13.334" viewBox="0 0 12 13.334">
  <g id="appointment" transform="translate(-1.6)">
    <path id="Path_1793" data-name="Path 1793" d="M12.817,1.66H11.045V.38A.384.384,0,0,0,10.657,0h-.374a.384.384,0,0,0-.389.38V1.66H5.323V.38A.384.384,0,0,0,4.934,0H4.56a.384.384,0,0,0-.389.38V1.66H2.383a.77.77,0,0,0-.783.757V12.578a.77.77,0,0,0,.783.756H12.817a.77.77,0,0,0,.783-.757V2.417a.77.77,0,0,0-.783-.757Zm-.323,10.263a.339.339,0,0,1-.345.332H3.088a.339.339,0,0,1-.345-.332V5.261h9.751v6.663Zm0-7.761H2.743V3.075a.339.339,0,0,1,.345-.332h9.061a.339.339,0,0,1,.345.332Z" transform="translate(0)" fill="#efefef"/>
    <path id="Path_1794" data-name="Path 1794" d="M7.4,16.59h.972a.381.381,0,0,0,.389-.372v-.955a.381.381,0,0,0-.389-.372H7.4a.381.381,0,0,0-.389.372v.955A.38.38,0,0,0,7.4,16.59Z" transform="translate(-3.154 -8.686)" fill="#efefef"/>
    <path id="Path_1795" data-name="Path 1795" d="M13.556,16.59h.972a.381.381,0,0,0,.389-.372v-.955a.381.381,0,0,0-.389-.372h-.972a.38.38,0,0,0-.389.372v.955A.381.381,0,0,0,13.556,16.59Z" transform="translate(-6.747 -8.686)" fill="#efefef"/>
    <path id="Path_1796" data-name="Path 1796" d="M19.715,16.59h.972a.381.381,0,0,0,.389-.372v-.955a.381.381,0,0,0-.389-.372h-.972a.381.381,0,0,0-.389.372v.955A.381.381,0,0,0,19.715,16.59Z" transform="translate(-10.34 -8.686)" fill="#efefef"/>
    <path id="Path_1797" data-name="Path 1797" d="M7.4,22.662h.972a.381.381,0,0,0,.389-.372v-.955a.381.381,0,0,0-.389-.372H7.4a.381.381,0,0,0-.389.372v.955A.38.38,0,0,0,7.4,22.662Z" transform="translate(-3.154 -12.228)" fill="#efefef"/>
    <path id="Path_1798" data-name="Path 1798" d="M13.556,22.662h.972a.381.381,0,0,0,.389-.372v-.955a.381.381,0,0,0-.389-.372h-.972a.381.381,0,0,0-.389.372v.955A.381.381,0,0,0,13.556,22.662Z" transform="translate(-6.747 -12.228)" fill="#efefef"/>
    <path id="Path_1799" data-name="Path 1799" d="M19.715,22.662h.972a.381.381,0,0,0,.389-.372v-.955a.381.381,0,0,0-.389-.372h-.972a.381.381,0,0,0-.389.372v.955A.381.381,0,0,0,19.715,22.662Z" transform="translate(-10.34 -12.228)" fill="#efefef"/>
  </g>
</svg>
