<svg xmlns="http://www.w3.org/2000/svg" width="27" height="27" viewBox="0 0 27 27">
  <path id="Icon_material-language" data-name="Icon material-language" d="M16.486,3A13.5,13.5,0,1,0,30,16.5,13.493,13.493,0,0,0,16.486,3Zm9.355,8.1H21.86A21.126,21.126,0,0,0,20,6.294,10.84,10.84,0,0,1,25.842,11.1ZM16.5,5.754A19.017,19.017,0,0,1,19.078,11.1H13.922A19.017,19.017,0,0,1,16.5,5.754ZM6.051,19.2a10.56,10.56,0,0,1,0-5.4h4.563a22.3,22.3,0,0,0-.189,2.7,22.3,22.3,0,0,0,.189,2.7Zm1.107,2.7h3.983A21.126,21.126,0,0,0,13,26.706,10.782,10.782,0,0,1,7.158,21.9Zm3.983-10.8H7.158A10.782,10.782,0,0,1,13,6.294,21.126,21.126,0,0,0,11.141,11.1ZM16.5,27.246A19.017,19.017,0,0,1,13.922,21.9h5.157A19.017,19.017,0,0,1,16.5,27.246ZM19.659,19.2H13.341a19.862,19.862,0,0,1-.216-2.7,19.69,19.69,0,0,1,.216-2.7h6.318a19.69,19.69,0,0,1,.216,2.7A19.862,19.862,0,0,1,19.659,19.2ZM20,26.706A21.126,21.126,0,0,0,21.859,21.9h3.983A10.84,10.84,0,0,1,20,26.706Zm2.39-7.506a22.3,22.3,0,0,0,.189-2.7,22.3,22.3,0,0,0-.189-2.7h4.563a10.56,10.56,0,0,1,0,5.4Z" transform="translate(-3 -3)"/>
</svg>
