<svg id="Group_1487" data-name="Group 1487" xmlns="http://www.w3.org/2000/svg" width="21.662" height="27" viewBox="0 0 21.662 27">
  <path id="Path_1252" data-name="Path 1252" d="M2.793,0h9.45a2.8,2.8,0,0,1,2.793,2.793V5.126h-.8V3.511H.8V23.082H14.236v-2.16l.8-.655v3.94A2.8,2.8,0,0,1,12.245,27H2.793A2.8,2.8,0,0,1,0,24.207V2.793A2.8,2.8,0,0,1,2.793,0ZM10.96,10.424a1.055,1.055,0,1,1-1.055,1.055,1.055,1.055,0,0,1,1.055-1.055Zm7.271,0a1.055,1.055,0,1,1-1.055,1.055,1.055,1.055,0,0,1,1.055-1.055Zm-3.634,0a1.055,1.055,0,1,1-1.055,1.055A1.055,1.055,0,0,1,14.6,10.424ZM18.754,6.6a2.9,2.9,0,0,1,2.909,2.909V13.9a2.9,2.9,0,0,1-2.909,2.909H16.385a8.528,8.528,0,0,1-4.671,2.966.415.415,0,0,1-.413-.123.409.409,0,0,1,.035-.58,4.472,4.472,0,0,0,.6-.637,5.356,5.356,0,0,0,.756-1.635h-2.3a2.9,2.9,0,0,1-2.907-2.909V9.508A2.9,2.9,0,0,1,10.393,6.6c3.07,0,5.291.007,8.361.007ZM7.519,23.959A1.145,1.145,0,1,1,6.374,25.1a1.147,1.147,0,0,1,1.145-1.145Z" transform="translate(0 0)" fill-rule="evenodd"/>
</svg>
