<svg id="Group_1488" data-name="Group 1488" xmlns="http://www.w3.org/2000/svg" width="29.348" height="27" viewBox="0 0 29.348 27">
  <path id="Path_1253" data-name="Path 1253" d="M0,23.9H3.516V.375A.377.377,0,0,1,3.891,0H15.8a.377.377,0,0,1,.375.375V9.2H26.711a.377.377,0,0,1,.375.375V23.9h2.262V27H0V23.9ZM6.525,3.539H8.961a.138.138,0,0,1,.136.136V6.628a.138.138,0,0,1-.136.136H6.525a.138.138,0,0,1-.136-.136V3.676a.138.138,0,0,1,.136-.136Zm4.127,14.683h2.436a.138.138,0,0,1,.136.136v2.952a.138.138,0,0,1-.136.136H10.652a.138.138,0,0,1-.136-.136V18.359a.136.136,0,0,1,.136-.136Zm-4.127,0H8.961a.138.138,0,0,1,.136.136v2.952a.138.138,0,0,1-.136.136H6.525a.138.138,0,0,1-.136-.136V18.359a.136.136,0,0,1,.136-.136Zm4.127-4.9h2.436a.138.138,0,0,1,.136.136v2.952a.138.138,0,0,1-.136.136H10.652a.138.138,0,0,1-.136-.136v-2.95a.138.138,0,0,1,.136-.139Zm-4.127,0H8.961a.138.138,0,0,1,.136.136v2.952a.138.138,0,0,1-.136.136H6.525a.138.138,0,0,1-.136-.136v-2.95a.138.138,0,0,1,.136-.139Zm4.127-4.894h2.436a.138.138,0,0,1,.136.136v2.952a.138.138,0,0,1-.136.136H10.652a.138.138,0,0,1-.136-.136V8.569a.138.138,0,0,1,.136-.136Zm-4.127,0H8.961a.138.138,0,0,1,.136.136v2.952a.138.138,0,0,1-.136.136H6.525a.138.138,0,0,1-.136-.136V8.569a.138.138,0,0,1,.136-.136Zm4.127-4.894h2.436a.138.138,0,0,1,.136.136V6.628a.138.138,0,0,1-.136.136H10.652a.138.138,0,0,1-.136-.136V3.676a.138.138,0,0,1,.136-.136ZM5.534,1.748h8.579a.3.3,0,0,1,.27.322V22.579a.3.3,0,0,1-.27.322H5.534a.3.3,0,0,1-.27-.322V2.071a.3.3,0,0,1,.27-.322ZM17.342,12.761h2.436a.138.138,0,0,1,.136.136v2.952a.138.138,0,0,1-.136.136H17.342a.138.138,0,0,1-.136-.136V12.9a.138.138,0,0,1,.136-.136Zm4.127,5.462H23.9a.138.138,0,0,1,.136.136v2.952a.138.138,0,0,1-.136.136H21.469a.138.138,0,0,1-.136-.136V18.359a.136.136,0,0,1,.136-.136Zm-4.127,0h2.436a.138.138,0,0,1,.136.136v2.952a.138.138,0,0,1-.136.136H17.342a.138.138,0,0,1-.136-.136V18.359a.136.136,0,0,1,.136-.136Zm4.127-5.462H23.9a.138.138,0,0,1,.136.136v2.952a.138.138,0,0,1-.136.136H21.469a.138.138,0,0,1-.136-.136V12.9a.138.138,0,0,1,.136-.136Zm-5.023-1.818h8.579a.3.3,0,0,1,.27.322V22.579a.3.3,0,0,1-.27.322H16.446a.3.3,0,0,1-.27-.322V11.266a.3.3,0,0,1,.27-.322Z" fill-rule="evenodd"/>
</svg>
