<svg xmlns="http://www.w3.org/2000/svg" width="29.084" height="27" viewBox="0 0 29.084 27">
  <path id="Path_1249" data-name="Path 1249" d="M22.6,12.487H6.487A.515.515,0,0,0,5.979,13v12.8a.5.5,0,0,0,.015.124H3.454V9.938c7.244.018,15.109.085,22.339.027V25.918h-2.7a.524.524,0,0,0,.015-.124V13a.514.514,0,0,0-.509-.508ZM14.91,3.5l3.508,3.023h0l.012.011.012.011.011.011h0l.011.012.011.012.011.012.01.012h0l.009.012h0l.009.012h0l.009.013.009.013.008.013h0l.007.013h0l.007.014.007.014.007.014h0l.006.014.006.014.006.014.005.014h0l0,.015h0l0,.014,0,.015,0,.015,0,.015,0,.015,0,.015h0l0,.015,0,.015h0l0,.015v.015h0v.03h0v.015h0v.031h0v.015h0v.031l0,.015,0,.015h0l0,.015h0l0,.015h0l0,.015,0,.015,0,.015,0,.015,0,.015h0l0,.015-.005.014-.006.015h0l-.006.014-.006.014-.007.014-.007.014-.007.014-.008.014-.008.014h0l-.008.013h0l-.009.014-.009.012-.01.013h0l-.01.012h0l-.01.013-.006.006h0l-.006.007-.006.006h0l-.006.007-.006.006-.006.006-.006.006-.006.006-.007.006-.006.006-.007.006-.007.005-.006.006-.007.006h0l-.006.005-.007.005h0l-.006.005h0l-.007.005-.007,0h0l-.007.005-.007,0h0l-.007,0-.007,0-.007,0-.007,0-.007,0-.007,0-.007,0-.007,0h0l-.007,0-.007,0-.007,0h0l-.007,0-.008,0-.007,0h0l-.007,0-.008,0-.008,0-.007,0h0l-.008,0-.008,0-.008,0-.008,0-.008,0-.008,0h0l-.007,0h0l-.008,0-.008,0-.008,0h0l-.008,0-.008,0H18v0h-6.97l-.016,0-.016,0-.016,0-.015,0-.015,0h0l-.015,0-.015,0h0l-.015,0h0l-.015,0L10.879,7.6l-.015,0-.014-.006-.014-.006h0l-.014-.006h0l-.014-.007-.014-.007h0l-.013-.007-.014-.007-.013-.008-.013-.008-.012-.009h0l-.012-.009L10.7,7.507,10.691,7.5h0l-.011-.01h0l-.011-.01-.011-.011-.011-.01-.011-.01-.011-.011-.01-.011-.01-.011-.01-.012-.01-.012-.009-.012-.009-.012h0l-.008-.012h0l-.008-.012h0l-.008-.013-.007-.013L10.524,7.3h0l-.007-.014-.007-.014h0L10.5,7.259,10.5,7.245l-.006-.014-.006-.015L10.48,7.2l0-.015,0-.015,0-.015h0l0-.015,0-.016,0-.015,0-.016,0-.016,0-.016V7h0V6.93h0V6.92h0V6.9l0-.01,0-.01,0-.009,0-.009,0-.009h0l0-.009h0l0-.01h0l0-.009,0-.009h0l0-.009h0l0-.009h0l0-.009,0-.009,0-.009h0l0-.009,0-.009,0-.009h0l0-.009,0-.009,0-.009h0l0-.008,0-.009,0-.008h0l0-.008h0l0-.008h0l0-.008.005-.008,0-.008.005-.007.005-.008.005-.007.005-.007.005-.007h0l.005-.007.006-.007.006-.007.006-.007.006-.007h0l.006-.007.006-.007h0l.006-.007h0l.006-.006.006-.007h0l.006-.006.006-.007h0l.006-.006.007-.006.006-.006h0l.007-.006.007-.006.007-.006h0l.007-.006.007-.006.007-.006h0L14.077,3.5l.011-.01.011-.009.012-.009.011-.009h0l.011-.009h0l.012-.009.012-.008.012-.007h0l.012-.007h0l.012-.007.012-.007.013-.006.012-.006h0l.012-.006h0l.013-.005.013-.005.013-.005h0l.013,0,.014,0,.014,0,.014,0,.014,0,.014,0h0l.013,0,.014,0,.014,0,.014,0h0l.014,0h.112l.014,0,.014,0,.014,0h0l.014,0,.014,0,.014,0,.014,0,.014,0,.013,0h0l.013,0,.014,0,.013,0,.013.005.013.005.013.006.012.006h0l.012.006.012.006h0l.012.007h0l.012.007.012.007.012.007.012.008.012.009.011.009h0l.011.009.011.01h0l.011.009ZM2.37,10.476H.542A.542.542,0,0,1,0,9.934V7.266H0a.539.539,0,0,1,.3-.485L13.978.071a.539.539,0,0,1,.5-.015L28.742,6.979a.542.542,0,0,1,.342.5V9.934a.542.542,0,0,1-.542.542H26.876V26.46a.542.542,0,0,1-.542.542H2.912a.543.543,0,0,1-.542-.542ZM17.678,23.309H20.9a.294.294,0,0,1,.293.293v1.381a.3.3,0,0,1-.293.293H17.678a.294.294,0,0,1-.293-.293V23.6A.293.293,0,0,1,17.678,23.309Zm-9.719-8.96h3.222a.294.294,0,0,1,.293.293v1.381a.294.294,0,0,1-.293.293H7.959a.293.293,0,0,1-.293-.293V14.641A.294.294,0,0,1,7.959,14.349Zm0,2.987h3.222a.294.294,0,0,1,.293.293v1.381a.294.294,0,0,1-.293.293H7.959a.293.293,0,0,1-.293-.293V17.628a.293.293,0,0,1,.293-.293Zm0,2.987h3.222a.294.294,0,0,1,.293.293V22a.294.294,0,0,1-.293.293H7.959A.294.294,0,0,1,7.667,22V20.615A.293.293,0,0,1,7.959,20.322Zm0,2.987h3.222a.294.294,0,0,1,.293.293v1.381a.294.294,0,0,1-.293.293H7.959a.293.293,0,0,1-.293-.293V23.6A.293.293,0,0,1,7.959,23.309Zm4.86-5.974h3.222a.294.294,0,0,1,.293.293v1.381a.294.294,0,0,1-.293.293H12.819a.294.294,0,0,1-.293-.293V17.628a.293.293,0,0,1,.293-.293Zm0,2.987h3.222a.294.294,0,0,1,.293.293V22a.294.294,0,0,1-.293.293H12.819A.294.294,0,0,1,12.526,22V20.615A.293.293,0,0,1,12.819,20.322Zm0,2.987h3.222a.293.293,0,0,1,.293.293v1.381a.294.294,0,0,1-.293.293H12.819a.294.294,0,0,1-.293-.293V23.6A.293.293,0,0,1,12.819,23.309Zm4.859-2.987H20.9a.294.294,0,0,1,.293.293V22a.3.3,0,0,1-.293.293H17.678A.294.294,0,0,1,17.385,22V20.615A.293.293,0,0,1,17.678,20.322Z" transform="translate(0 -0.002)" fill-rule="evenodd"/>
</svg>
