<svg xmlns="http://www.w3.org/2000/svg" width="22" height="22" viewBox="0 0 22 22">
  <g id="Group_25" data-name="Group 25" transform="translate(-962 -23)">
    <circle id="Ellipse_1" data-name="Ellipse 1" cx="11" cy="11" r="11" transform="translate(962 23)" fill="#dc0000"/>
    <path id="Icon_metro-cross" data-name="Icon metro-cross" d="M12.48,9.962h0L9.446,6.928l3.034-3.034h0a.313.313,0,0,0,0-.442L11.046,2.019a.313.313,0,0,0-.442,0h0L7.571,5.053,4.537,2.019h0a.313.313,0,0,0-.442,0L2.662,3.452a.313.313,0,0,0,0,.442h0L5.7,6.928,2.662,9.962h0a.313.313,0,0,0,0,.442L4.1,11.837a.313.313,0,0,0,.442,0h0L7.571,8.8,10.6,11.837h0a.313.313,0,0,0,.442,0L12.479,10.4a.313.313,0,0,0,0-.442Z" transform="translate(965.429 27.072)" fill="#fff"/>
  </g>
</svg>
