<svg xmlns="http://www.w3.org/2000/svg" width="24" height="24.387" viewBox="0 0 24 24.387">
  <path id="Icon_awesome-power-off" data-name="Icon awesome-power-off" d="M19.53,2.618a12,12,0,1,1-13.945,0A1.165,1.165,0,0,1,7.279,3l.765,1.36a1.161,1.161,0,0,1-.319,1.5,8.128,8.128,0,1,0,9.673,0,1.154,1.154,0,0,1-.315-1.5L17.846,3a1.16,1.16,0,0,1,1.684-.377ZM14.5,12.774V1.161A1.159,1.159,0,0,0,13.337,0H11.788a1.159,1.159,0,0,0-1.161,1.161V12.774a1.159,1.159,0,0,0,1.161,1.161h1.548A1.159,1.159,0,0,0,14.5,12.774Z" transform="translate(-0.563)" fill="#9f9f9f"/>
</svg>
