<svg xmlns="http://www.w3.org/2000/svg" width="13.001" height="16" viewBox="0 0 13.001 16">
  <path id="Icon_awesome-running" data-name="Icon awesome-running" d="M8.5,3A1.5,1.5,0,1,0,7,1.5,1.5,1.5,0,0,0,8.5,3ZM3.553,9.921,3.09,11H1a1,1,0,1,0,0,2H3.42A1.5,1.5,0,0,0,4.8,12.091l.275-.641-.333-.2A2.976,2.976,0,0,1,3.553,9.921ZM12,7H10.624L9.81,5.336A3,3,0,0,0,7.879,3.744L5.658,3.083a2.987,2.987,0,0,0-2.526.536l-1.24.95A1,1,0,0,0,3.109,6.156l1.24-.95a.973.973,0,0,1,.79-.192l.459.137L4.428,7.882a2.005,2.005,0,0,0,.822,2.51l2.656,1.568L7.047,14.7a1,1,0,1,0,1.909.6l.989-3.158a1.506,1.506,0,0,0-.676-1.7L7.354,9.311l.978-2.446.633,1.295A1.509,1.509,0,0,0,10.313,9H12a1,1,0,1,0,0-2Z"/>
</svg>
