<svg id="workflow-diagram" xmlns="http://www.w3.org/2000/svg" width="30" height="30" viewBox="0 0 30 30">
  <path id="Path_3665" data-name="Path 3665" d="M26.071,22.272V17.205H19.683l-3.747-3.747v-2.65a4.434,4.434,0,1,0-1.267,0v2.627l-3.77,3.77H4.534v5.067H2v6.334H8.334V22.272H5.8v-3.8h5.014l4.475,4.476,4.477-4.476H24.8v3.8H22.27v6.334H28.6V22.272Zm-19,5.067h-3.8v-3.8h3.8Zm5.068-20.9A3.167,3.167,0,1,1,15.3,9.6a3.167,3.167,0,0,1-3.167-3.167Zm3.148,14.737-3.294-3.294,3.167-3.167h.253l3.167,3.167ZM27.338,27.34h-3.8v-3.8h3.8Z" transform="translate(0.264 0.262)"/>
  <path id="Path_3666" data-name="Path 3666" d="M0,0H30V30H0Z" fill="none"/>
</svg>
